<?xml version="1.0" encoding="utf-8" ?>
<svg xmlns="http://www.w3.org/2000/svg" xmlns:xlink="http://www.w3.org/1999/xlink" width="1024" height="1024">
	<path fill="#FDC901" transform="scale(2 2)" d="M137.292 281.706L99.2904 281.714C77.9338 281.707 62.9038 284.453 62.7823 257.95L62.7617 172.058C62.7506 149.504 65.8679 145.989 90.4421 145.998L196.252 146.006L196.252 183.513L240.748 183.513L240.75 248.841C240.75 259.79 240.892 270.759 240.748 281.706L193.951 281.706C182.331 282.291 163.283 282.474 151.699 281.706L151.701 326.179C151.699 333.56 151.392 341.053 151.699 348.42C155.296 354.36 168.364 351.349 174.64 351.718C174.834 356.487 174.651 361.33 174.64 366.106C174.026 366.157 173.415 366.156 172.799 366.158L162.537 366.137C133.647 365.996 137.288 348.822 137.305 327.628L137.292 281.706Z"/>
	<path fill="#E33913" transform="scale(2 2)" d="M196.252 183.513L240.748 183.513L240.75 248.841C240.75 259.79 240.892 270.759 240.748 281.706L193.951 281.706L193.586 281.575C193.382 281.1 194.27 280.108 194.573 279.694C196.929 276.473 196.251 271.814 196.251 268.005L196.252 183.513Z"/>
	<path fill="#E33913" transform="scale(2 2)" d="M91.6979 183.513L161.753 183.513C161.735 188.105 161.657 192.706 161.753 197.297L91.6979 197.297L91.6979 183.513Z"/>
	<path fill="#E33913" transform="scale(2 2)" d="M91.6979 209.764L161.753 209.764L161.753 223.512L91.6979 223.512L91.6979 209.764Z"/>
	<path fill="#E33913" transform="scale(2 2)" d="M156.388 236.036C158.167 235.88 159.969 235.986 161.753 236.036L161.753 249.731L97.1875 249.731L91.6979 249.731L91.6979 236.036C98.9306 236.217 106.213 236.045 113.45 236.044L156.388 236.036Z"/>
	<path fill="#FDC901" transform="scale(2 2)" d="M306.749 211.708Q305.268 210.562 303.843 209.348Q302.418 208.133 301.052 206.852Q299.686 205.571 298.383 204.226Q297.079 202.882 295.841 201.477Q294.604 200.072 293.434 198.61Q292.264 197.148 291.165 195.631Q290.066 194.115 289.04 192.549Q288.015 190.982 287.065 189.368Q286.115 187.755 285.243 186.098Q284.37 184.441 283.578 182.744Q282.785 181.047 282.074 179.315Q281.363 177.583 280.736 175.819Q280.108 174.054 279.565 172.262Q279.021 170.47 278.564 168.655Q278.106 166.839 277.736 165.003Q277.365 163.168 277.082 161.317Q276.799 159.466 276.605 157.603Q276.41 155.741 276.304 153.871Q276.198 152.002 276.181 150.129Q276.164 148.257 276.236 146.386Q276.309 144.515 276.469 142.649Q276.63 140.783 276.88 138.928Q277.129 137.072 277.467 135.23Q277.804 133.388 278.229 131.564Q278.653 129.74 279.164 127.939Q279.675 126.137 280.271 124.362Q280.866 122.587 281.546 120.842Q282.225 119.097 282.987 117.386Q283.749 115.676 284.591 114.003Q285.433 112.331 286.354 110.7Q287.274 109.07 288.271 107.485Q289.269 105.9 290.34 104.364Q291.411 102.828 292.555 101.345Q293.698 99.862 294.91 98.4349Q296.122 97.0077 297.401 95.6399Q298.68 94.272 300.022 92.9664Q301.365 91.6609 302.768 90.4207Q304.171 89.1804 305.631 88.0082Q307.091 86.8361 308.606 85.7346Q310.12 84.6332 311.685 83.605Q313.25 82.5768 314.862 81.6241Q316.474 80.6715 318.13 79.7965Q319.785 78.9216 321.481 78.1263Q323.176 77.331 324.907 76.6172Q326.638 75.9034 328.401 75.2728Q330.165 74.642 331.956 74.0959Q333.747 73.5497 335.562 73.0893Q337.377 72.6289 339.212 72.2552Q341.047 71.8816 342.897 71.5956Q344.748 71.3096 346.61 71.1119Q348.472 70.9142 350.342 70.8053Q352.211 70.6963 354.083 70.6763Q355.956 70.6563 357.827 70.7254Q359.698 70.7944 361.564 70.9523Q363.43 71.1102 365.286 71.3566Q367.143 71.6031 368.985 71.9374Q370.828 72.2718 372.652 72.6934Q374.477 73.1149 376.279 73.6228Q378.081 74.1306 379.858 74.7235Q381.634 75.3164 383.38 75.9931Q385.126 76.6698 386.838 77.4287Q388.55 78.1876 390.223 79.027Q391.897 79.8664 393.529 80.7844Q395.161 81.7024 396.748 82.697Q398.335 83.6916 399.872 84.7604Q401.41 85.8293 402.895 86.97Q404.379 88.1108 405.809 89.3208Q407.238 90.5309 408.608 91.8075Q409.978 93.0841 411.285 94.4243Q412.593 95.7646 413.835 97.1655Q415.078 98.5664 416.253 100.025Q417.427 101.483 418.531 102.996Q419.635 104.508 420.666 106.072Q421.696 107.635 422.652 109.246Q423.607 110.856 424.484 112.51Q425.362 114.164 426.16 115.858Q426.958 117.552 427.675 119.282Q428.391 121.012 429.025 122.775Q429.658 124.537 430.208 126.327Q430.757 128.117 431.22 129.931Q431.683 131.746 432.06 133.58Q432.436 135.414 432.725 137.264Q433.014 139.115 433.215 140.976Q433.416 142.838 433.528 144.707Q433.64 146.576 433.663 148.449Q433.686 150.321 433.62 152.193Q433.554 154.064 433.399 155.93Q433.244 157.796 433.001 159.653Q432.757 161.51 432.426 163.353Q432.095 165.196 431.676 167.021Q431.257 168.846 430.753 170.649Q430.248 172.452 429.658 174.229Q429.068 176.007 428.394 177.754Q427.72 179.501 426.964 181.214Q426.208 182.927 425.371 184.602Q424.534 186.277 423.619 187.911Q422.704 189.545 421.712 191.133Q420.72 192.721 419.653 194.26Q418.587 195.8 417.449 197.286Q416.31 198.773 415.103 200.204Q413.895 201.635 412.621 203.007Q411.346 204.379 410.008 205.689Q408.67 206.999 407.271 208.244Q405.872 209.489 404.416 210.666Q402.959 211.843 401.448 212.949Q399.938 214.055 398.376 215.089Q396.814 216.122 395.205 217.08Q393.596 218.038 391.944 218.918Q390.291 219.798 388.598 220.599Q386.906 221.4 385.177 222.119Q383.448 222.839 381.687 223.475Q379.926 224.112 378.136 224.663Q376.347 225.216 374.533 225.682Q372.72 226.148 370.886 226.528Q369.052 226.907 367.203 227.199Q365.353 227.491 363.492 227.695Q361.63 227.899 359.761 228.014Q357.892 228.129 356.02 228.155Q354.148 228.181 352.276 228.118Q350.405 228.055 348.538 227.903Q346.672 227.752 344.815 227.511Q342.958 227.271 341.114 226.942Q339.271 226.614 337.445 226.198Q335.619 225.783 333.815 225.281Q332.011 224.779 330.233 224.192Q328.455 223.605 326.706 222.934Q324.958 222.263 323.244 221.509Q321.53 220.756 319.853 219.922Q312.896 216.462 306.749 211.708Z"/>
	<path fill="#E33913" transform="scale(2 2)" d="M347.52 91.2836L362.221 91.2836L362.221 106.228C369.162 107.304 374.348 110.52 380.519 113.524C383.022 109.537 387.401 106.063 390.577 102.458C393.968 106.268 397.864 109.609 401.135 113.524C397.451 116.906 393.263 120.34 390.577 124.596C393.354 130.93 395.355 134.129 397.153 141.258L411.942 141.258L411.942 155.771L397.153 155.771C396.291 161.942 393.865 167.114 390.577 172.313C394.8 175.754 398.23 180.083 402.47 183.513C399.205 187.505 395.444 191.02 392.044 194.894C388.529 190.72 384.429 187.282 380.519 183.513C374.73 187.32 368.949 189.841 362.221 191.438L362.221 203.063L362.221 205.674L346.781 205.674L346.781 191.438C340.322 188.698 335.417 187.806 329.346 183.513C325.651 186.803 322.192 190.378 318.663 193.845C315.621 189.776 311.583 186.762 308.322 182.907C311.169 179.135 314.996 175.88 318.138 172.313C315.457 166.722 313.086 161.989 312.022 155.771C307.125 155.746 302.15 156.046 297.265 155.771L297.265 141.258L312.022 141.258C313.153 135.164 315.302 129.785 318.663 124.596C315.345 121.066 311.901 117.59 308.322 114.324C312.027 110.97 315.442 107.309 318.663 103.493C322.067 106.905 325.446 110.672 329.346 113.524C335.153 109.735 340.716 107.569 347.52 106.228L347.52 91.2836Z"/>
	<path fill="#FDC901" transform="scale(2 2)" d="M354.336 119.945Q355.043 119.941 355.749 119.972Q356.455 120.003 357.158 120.069Q357.862 120.134 358.562 120.234Q359.261 120.334 359.955 120.468Q360.649 120.603 361.335 120.771Q362.022 120.939 362.699 121.14Q363.376 121.342 364.043 121.576Q364.71 121.811 365.364 122.078Q366.018 122.345 366.659 122.644Q367.299 122.943 367.924 123.272Q368.549 123.602 369.157 123.962Q369.765 124.323 370.355 124.712Q370.944 125.102 371.514 125.52Q372.084 125.938 372.633 126.383Q373.181 126.829 373.707 127.301Q374.233 127.772 374.736 128.27Q375.238 128.767 375.715 129.288Q376.193 129.809 376.644 130.353Q377.095 130.897 377.519 131.462Q377.943 132.028 378.338 132.613Q378.734 133.199 379.1 133.803Q379.467 134.408 379.803 135.029Q380.139 135.651 380.445 136.288Q380.75 136.925 381.024 137.577Q381.298 138.228 381.539 138.892Q381.781 139.557 381.989 140.232Q382.198 140.907 382.373 141.592Q382.548 142.276 382.69 142.969Q382.831 143.661 382.938 144.36Q383.045 145.058 383.118 145.761Q383.191 146.464 383.229 147.17Q383.267 147.875 383.271 148.582Q383.275 149.289 383.243 149.995Q383.212 150.701 383.147 151.404Q383.081 152.108 382.981 152.807Q382.88 153.507 382.746 154.201Q382.612 154.895 382.443 155.581Q382.275 156.267 382.073 156.944Q381.871 157.622 381.637 158.288Q381.402 158.955 381.135 159.609Q380.867 160.263 380.568 160.904Q380.27 161.544 379.939 162.169Q379.609 162.794 379.249 163.402Q378.889 164.009 378.499 164.599Q378.109 165.188 377.691 165.758Q377.273 166.328 376.827 166.876Q376.382 167.425 375.91 167.951Q375.438 168.477 374.94 168.979Q374.443 169.481 373.922 169.958Q373.401 170.435 372.857 170.886Q372.312 171.337 371.747 171.761Q371.181 172.184 370.596 172.58Q370.01 172.975 369.406 173.342Q368.801 173.708 368.18 174.044Q367.558 174.38 366.921 174.685Q366.283 174.991 365.632 175.264Q364.98 175.538 364.316 175.779Q363.652 176.02 362.976 176.229Q362.301 176.437 361.617 176.612Q360.932 176.787 360.239 176.928Q359.547 177.069 358.848 177.176Q358.15 177.283 357.447 177.356Q356.744 177.429 356.038 177.467Q355.333 177.505 354.626 177.508Q353.92 177.511 353.214 177.48Q352.508 177.449 351.805 177.383Q351.101 177.317 350.402 177.217Q349.703 177.116 349.009 176.982Q348.316 176.847 347.63 176.679Q346.944 176.511 346.267 176.309Q345.59 176.107 344.923 175.872Q344.257 175.638 343.603 175.37Q342.949 175.103 342.309 174.804Q341.669 174.505 341.044 174.175Q340.42 173.845 339.812 173.485Q339.204 173.125 338.615 172.735Q338.026 172.346 337.456 171.928Q336.887 171.51 336.338 171.064Q335.79 170.619 335.264 170.147Q334.739 169.675 334.237 169.178Q333.735 168.681 333.258 168.16Q332.781 167.638 332.33 167.095Q331.879 166.551 331.455 165.985Q331.032 165.42 330.636 164.835Q330.241 164.249 329.875 163.645Q329.509 163.041 329.173 162.419Q328.837 161.798 328.531 161.161Q328.226 160.524 327.953 159.873Q327.679 159.221 327.438 158.557Q327.196 157.893 326.988 157.218Q326.779 156.543 326.604 155.859Q326.429 155.175 326.288 154.482Q326.147 153.79 326.04 153.092Q325.933 152.394 325.86 151.691Q325.787 150.988 325.749 150.283Q325.711 149.577 325.707 148.871Q325.703 148.165 325.735 147.459Q325.766 146.753 325.831 146.05Q325.897 145.346 325.997 144.647Q326.097 143.948 326.232 143.254Q326.366 142.561 326.534 141.875Q326.702 141.188 326.904 140.511Q327.106 139.834 327.34 139.168Q327.575 138.502 327.842 137.848Q328.109 137.194 328.408 136.554Q328.706 135.913 329.036 135.289Q329.366 134.664 329.726 134.056Q330.086 133.448 330.476 132.859Q330.865 132.27 331.283 131.7Q331.701 131.131 332.146 130.582Q332.592 130.034 333.063 129.508Q333.535 128.982 334.032 128.48Q334.529 127.978 335.05 127.501Q335.571 127.024 336.115 126.573Q336.658 126.122 337.224 125.698Q337.789 125.274 338.374 124.879Q338.959 124.483 339.563 124.117Q340.167 123.75 340.789 123.414Q341.41 123.078 342.047 122.773Q342.684 122.467 343.335 122.193Q343.987 121.92 344.65 121.678Q345.314 121.437 345.989 121.228Q346.664 121.02 347.348 120.844Q348.033 120.669 348.725 120.528Q349.417 120.386 350.115 120.279Q350.813 120.171 351.516 120.098Q352.219 120.026 352.924 119.987Q353.63 119.949 354.336 119.945Z"/>
	<path fill="#E33913" transform="scale(2 2)" d="M256.737 281.706C262.451 281.874 268.178 281.681 273.894 281.706L273.894 298.67C283.873 300.24 296.06 303.919 302.895 311.838C306.179 307.943 310.051 303.78 314.078 300.652C317.692 304.923 322.109 308.433 325.782 312.649C322.254 316.311 318.776 320.076 314.931 323.41C321.451 333.027 324.046 339.049 327.022 350.143L342.307 350.143L342.307 368.738L327.022 368.738C325.02 379.634 320.717 387.27 314.078 395.984C317.802 400.014 321.697 403.951 325.782 407.616C322.282 411.393 315.803 417.919 312.022 420.852C309.386 417.196 305.824 414.238 302.895 410.808C295.999 420.28 284.737 421.582 273.894 422.541L273.894 437.46L256.737 437.46L256.737 422.541C246.719 420.957 233.501 419.343 226.717 410.808C223.24 413.688 219.94 417.125 217.391 420.852L203.906 406.754C206.911 403.304 210.489 400.228 213.827 397.099C208.438 388.577 203.972 378.9 203.091 368.738L187.515 368.738L187.515 350.757L203.091 350.757C204.598 342.797 209.829 329.283 215.652 323.41C212.382 319.338 208.701 315.603 205.086 311.838C208.395 308.449 213.227 302.419 217.391 300.652C221.205 303.519 224.57 307.46 227.939 310.837C237.005 304.483 245.539 299.891 256.737 298.67C256.64 293.016 256.751 287.36 256.737 281.706ZM268.069 368.738C290.672 362.748 289.785 322.818 262.095 325.811C237.178 330.353 243.063 370.796 268.069 368.738Z"/>
	<path fill="#FDC901" transform="scale(2 2)" d="M226.717 410.808C226.926 399.773 224.517 392.042 233.326 383.573C244.089 373.226 252.654 375.109 265.316 374.989C276.594 374.881 290.15 373.925 298.594 382.947C305.951 390.808 306.687 401.295 302.895 410.808C295.999 420.28 284.737 421.582 273.894 422.541L273.894 437.46L256.737 437.46L256.737 422.541C246.719 420.957 233.501 419.343 226.717 410.808Z"/>
	<path fill="#FDE464" transform="scale(2 2)" d="M349.805 268.506C363.239 272.795 356.246 275.163 374.513 275.137L448 275.124L448 375.262C443.843 375.477 439.615 375.289 435.451 375.272L414.603 375.261C395.408 375.258 376.194 375.478 357.003 375.262L357.018 293.916C357.021 290.075 357.369 285.611 356.544 281.854C355.46 276.92 351.2 273.376 349.805 268.506Z"/>
	<path fill="#949188" transform="scale(2 2)" d="M373.366 319.026C379.804 319.235 386.316 319.036 392.76 319.035L431.426 319.026L431.426 333.969L373.366 333.969L373.366 319.026Z"/>
	<path fill="#949188" transform="scale(2 2)" d="M373.366 292.045C375.625 292.231 377.956 292.076 380.223 292.063L431.426 292.045L431.426 306.996L373.366 306.996L373.366 292.045Z"/>
	<path fill="#949188" transform="scale(2 2)" d="M373.366 346.149C379.597 346.524 386.095 346.16 392.349 346.158L431.426 346.149L431.426 360.755L373.366 360.755L373.366 346.149Z"/>
	<path fill="#E33913" transform="scale(2 2)" d="M306.749 211.708Q312.896 216.462 319.853 219.922C313.728 225.501 307.983 231.495 302.173 237.398L277.287 262.716C274.673 265.421 271.937 269.164 267.903 269.622C262.889 270.19 257.498 263.854 260.641 259.297C263.718 254.835 269.574 249.766 273.536 245.72L293.02 225.815C297.622 221.143 302.337 216.56 306.749 211.708Z"/>
</svg>
