<?xml version="1.0" encoding="utf-8" ?>
<svg xmlns="http://www.w3.org/2000/svg" xmlns:xlink="http://www.w3.org/1999/xlink" width="1024" height="1024">
	<path fill="#E33913" transform="scale(2 2)" d="M231.491 160.38C229.175 157.6 225.788 155.824 223.203 153.297C193.011 123.771 214.868 70.0185 258.345 72.286C297.752 74.3412 316.702 123.547 288.907 152.936C286.178 155.822 283.272 158.348 280.656 161.369C297.103 162.582 317.486 178.561 328.231 191.119C360.692 229.057 356.761 284.2 321.328 318.756C309.459 330.68 293.772 338.653 277.329 342.124C272.39 343.166 267.219 343.34 262.334 344.5C258.268 344.936 253.654 344.597 249.544 344.5C230.537 341.214 212.977 337.87 197.457 324.655C163.649 296.07 149.436 249.055 171.223 208.558C184.682 183.541 204.48 168.462 231.491 160.38ZM317.812 281.6C315.815 280.487 314.006 279.422 312.279 277.907C309.952 276.705 308.562 278.242 308.553 280.75L309.157 281.6C312.032 281.562 314.946 281.695 317.812 281.6ZM313.366 251.733C314.798 250.442 316.304 249.251 317.812 248.05C315.522 248.175 313.283 248.159 310.993 248.05L311.192 249.787C311.357 251.321 311.853 251.701 313.366 251.733Z"/>
	<path fill="#DEDEDE" transform="scale(2 2)" d="M231.491 160.38C229.175 157.6 225.788 155.824 223.203 153.297C193.011 123.771 214.868 70.0185 258.345 72.286C297.752 74.3412 316.702 123.547 288.907 152.936C286.178 155.822 283.272 158.348 280.656 161.369L279.511 161.369C279.55 176.756 279.516 188.233 263.441 194.316C255.042 196.952 246.743 195.219 240.39 188.815C232.463 180.825 233.712 172.145 233.761 161.817C233.059 161.271 232.252 160.84 231.491 160.38Z"/>
	<path fill="#FDC901" transform="scale(2 2)" d="M207.298 313.54C210.045 313.293 212.939 313.528 215.705 313.531L288.103 313.539C296.964 313.538 306.125 313.977 314.951 313.54C317.288 315.062 319.123 317.094 321.328 318.756C309.459 330.68 293.772 338.653 277.329 342.124C272.39 343.166 267.219 343.34 262.334 344.5C258.268 344.936 253.654 344.597 249.544 344.5C230.537 341.214 212.977 337.87 197.457 324.655C198.605 319.113 202.07 315.67 207.298 313.54Z"/>
	<path fill="#FEFEFE" transform="scale(2 2)" d="M209.248 281.6C190.491 274.099 193.124 251.72 209.681 248.398C214.779 247.375 222.549 248.041 227.968 248.052L263.441 248.05C275.284 248.05 287.167 248.274 299.004 248.05L310.993 248.05L311.192 249.787C311.357 251.321 311.853 251.701 313.366 251.733C305.806 259.692 304.342 269.631 312.279 277.907C309.952 276.705 308.562 278.242 308.553 280.75L309.157 281.6L242.194 281.604C231.227 281.604 220.21 281.369 209.248 281.6Z"/>
	<path fill="#FDC901" transform="scale(2 2)" d="M280.656 218.178C286.291 214.284 293.148 208.63 299.004 205.524L299.004 248.05C287.167 248.274 275.284 248.05 263.441 248.05C264.203 234.412 263.187 219.398 263.441 205.524C269.403 209.124 275.154 213.888 280.656 218.178Z"/>
	<path fill="#FDC901" transform="scale(2 2)" d="M249.544 344.5C253.654 344.597 258.268 344.936 262.334 344.5L262.334 362.929C262.39 365.042 262.391 367.14 262.334 369.252C278.571 369.201 287.259 364.256 287.248 381.725L287.233 393.476C287.212 406.034 287.403 418.612 287.26 431.166C287.164 439.711 281.712 438.453 275.364 438.445L240.398 438.435C225.492 438.444 223.994 440.886 224.002 423.775L224.014 388.69C224.001 375.846 220.934 369.13 236.318 369.22C240.716 369.246 245.15 369.375 249.544 369.252L249.544 362.929L249.544 344.5Z"/>
	<path fill="#E33913" transform="scale(2 2)" d="M249.544 344.5C253.654 344.597 258.268 344.936 262.334 344.5L262.334 362.929C262.322 365.037 262.307 367.145 262.334 369.252C258.299 368.832 253.601 368.935 249.544 369.252C249.584 367.151 249.69 365.027 249.544 362.929L249.544 344.5Z"/>
	<path fill="#FDC901" transform="scale(2 2)" d="M367.738 331.146C368.099 314.576 366.164 313.458 382.138 313.51L414.909 313.532C433.622 313.412 432.293 314.244 432.299 330.508L432.304 370.203C432.312 385.953 431.841 384.478 417.826 384.477L382.254 384.488C367.829 384.493 367.669 384.059 367.711 368.139L367.768 350.129C367.774 348.352 367.989 346.247 367.738 344.5L367.738 331.146Z"/>
	<path fill="#FDC901" transform="scale(2 2)" d="M143.375 178.048C141.261 183.688 147.664 198.476 137.039 198.774C121.602 199.208 101.957 199.449 86.5849 198.702C83.4862 198.551 81.4935 197.444 80.4275 194.377C79.6671 192.189 79.1164 132.394 80.84 129.889C83.5028 126.019 93.4418 127.457 97.4494 127.481L130.366 127.452C145.97 127.406 143.375 131.595 143.384 145.593L143.375 165.461C143.362 167.299 142.982 177.253 143.375 178.048Z"/>
	<path fill="#FDC901" transform="scale(2 2)" d="M370.939 128.511C373.927 126.49 378.14 127.42 381.544 127.46L416.621 127.47C434.968 127.406 432.289 130.28 432.3 147.803L432.299 180.267C432.293 186.389 433.395 193.835 428.941 198.716C425.947 198.919 422.909 198.737 419.907 198.722L404.876 198.719C398.028 198.721 376.306 200.131 370.939 197.511C366.921 192.933 368.345 183.941 368.712 178.344L368.733 178.048C369.036 173.948 368.77 169.58 368.733 165.461C371.22 158.625 365.54 134.942 370.794 128.686L370.939 128.511Z"/>
	<path fill="#FDC901" transform="scale(2 2)" d="M144.338 343.315C143.97 345.296 144.298 347.919 144.315 349.958L144.352 366.97C144.405 380.512 146.687 382.935 131.231 382.897L97.9003 382.884C79.3503 382.919 80.7112 382.987 80.7372 366.219L80.7345 329.373C80.6775 320.901 78.3032 313.701 89.8176 313.549C99.9792 313.415 110.158 313.526 120.321 313.53C140.583 313.539 144.552 308.921 144.338 329.937C144.337 334.387 144.216 338.869 144.338 343.315Z"/>
	<path fill="#E33913" transform="scale(2 2)" d="M144.338 329.937C150.959 326.802 165.498 317.779 171.625 316.317C173.807 319.395 175.833 322.678 177.373 326.129C173.1 327.876 169.071 330.162 165.011 332.345L151.767 339.4C149.315 340.715 146.884 342.197 144.338 343.315C144.216 338.869 144.337 334.387 144.338 329.937Z"/>
	<path fill="#E33913" transform="scale(2 2)" d="M340.16 316.317C349.144 321.503 359.051 325.525 367.738 331.146L367.738 344.5C363.485 341.38 358.656 339.133 354.001 336.683L333.998 326.129C336.096 322.887 338.12 319.596 340.16 316.317Z"/>
	<path fill="#E33913" transform="scale(2 2)" d="M143.375 165.461C154.106 170.229 164.242 176.49 174.749 181.738C172.669 184.736 170.802 187.883 168.716 190.864L154.398 183.44C150.781 181.562 147.163 179.565 143.375 178.048C142.982 177.253 143.362 167.299 143.375 165.461Z"/>
	<path fill="#E33913" transform="scale(2 2)" d="M368.733 165.461C368.77 169.58 369.036 173.948 368.733 178.048C362.837 179.766 348.553 187.269 343.256 190.864C341.46 187.66 339.529 184.645 337.276 181.738C344.602 176.724 360.507 169.3 368.733 165.461Z"/>
</svg>
