<?xml version="1.0" encoding="UTF-8" standalone="no"?>
<svg
   width="1024"
   height="1024"
   version="1.1"
   id="svg14"
   sodipodi:docname="logo.svg"
   inkscape:version="1.4 (1:1.4+202410161351+e7c3feb100)"
   inkscape:export-filename="logo.png"
   inkscape:export-xdpi="24"
   inkscape:export-ydpi="24"
   xmlns:inkscape="http://www.inkscape.org/namespaces/inkscape"
   xmlns:sodipodi="http://sodipodi.sourceforge.net/DTD/sodipodi-0.dtd"
   xmlns="http://www.w3.org/2000/svg"
   xmlns:svg="http://www.w3.org/2000/svg">
  <defs
     id="defs14" />
  <sodipodi:namedview
     id="namedview14"
     pagecolor="#ffffff"
     bordercolor="#666666"
     borderopacity="1.0"
     inkscape:showpageshadow="2"
     inkscape:pageopacity="0.0"
     inkscape:pagecheckerboard="0"
     inkscape:deskcolor="#d1d1d1"
     inkscape:zoom="0.390625"
     inkscape:cx="239.36"
     inkscape:cy="824.32"
     inkscape:window-width="1860"
     inkscape:window-height="1016"
     inkscape:window-x="60"
     inkscape:window-y="27"
     inkscape:window-maximized="1"
     inkscape:current-layer="svg14">
    <sodipodi:guide
       position="0,1024"
       orientation="0,1024"
       id="guide14"
       inkscape:locked="false" />
    <sodipodi:guide
       position="1024,1024"
       orientation="1024,0"
       id="guide15"
       inkscape:locked="false" />
    <sodipodi:guide
       position="1024,0"
       orientation="0,-1024"
       id="guide16"
       inkscape:locked="false" />
    <sodipodi:guide
       position="0,0"
       orientation="-1024,0"
       id="guide17"
       inkscape:locked="false" />
  </sodipodi:namedview>
  <path
     fill="#e33913"
     d="m 425.1319,272.76203 c 2.66666,-48.60358 -18.41234,-144.84578 41.16721,-155.39449 23.27417,-4.12148 64.20197,-1.91159 89.52034,-1.92262 33.80445,-0.0112 93.10778,-9.70525 116.75763,17.42893 18.04035,20.69595 8.9686,109.25128 10.65921,139.88818 1.20438,35.31828 -0.059,71.06747 -0.0813,106.42256 -0.003,7.31853 -3.97419,39.80441 4.14359,41.53552 9.27063,-0.86924 18.89117,-0.25045 28.20967,-0.14378 l 41.77862,0.14378 H 1002.419 v 45.25556 c -7.31122,0.0735 -14.68491,0.34253 -21.98141,0 -2.38306,50.73249 -2.92812,127.30267 0,177.9136 6.09938,-0.36462 12.32766,-1.10864 18.37919,0 l 2.52312,0.43093 c 2.8765,6.04783 1.1344,36.28327 1.0791,44.93143 H 757.28709 683.23624 v 57.96631 H 670.566 c -5.22646,12.77335 -57.69741,90.10229 -70.64391,103.33604 -13.80464,20.1692 -28.8358,39.66806 -42.90933,59.69373 -15.91147,-16.57437 -32.99416,-40.25374 -45.62389,-59.69373 -15.97039,-20.1729 -64.79126,-82.44856 -73.89616,-103.33604 -4.08468,0.28728 -8.26144,0.0515 -12.36086,0 v -57.96631 l -189.66302,-0.014 c -30.13233,0.005 -84.4817,3.03865 -111.75954,-3.24491 -135.368885,-31.17829 -137.077892,-230.05669 -4.17308,-261.2019 30.78794,-7.21172 86.38961,-4.09573 120.06886,-4.07732 l 185.52678,0.005 z"
     id="path6"
     style="fill:#257538;stroke-width:3.6832" />
  <path
     fill="#dedede"
     d="m 757.28715,465.97567 h 223.15079 c -2.38307,50.73249 -2.9282,127.30267 0,177.9136 6.09937,-0.36462 12.32766,-1.10864 18.37918,0 H 757.28715 Z"
     id="path7"
     style="stroke-width:3.6832" />
  <path
     fill="#dedede"
     d="m 345.38313,465.97567 c 26.38649,-0.28363 53.41383,-1.15285 79.74877,0 v 177.9136 h -70.93119 l -136.76849,0.0112 c -23.88191,0.0331 -62.85761,2.57824 -85.29572,-2.64086 C 43.702735,620.69256 41.802217,488.808 130.40173,468.50248 c 22.81746,-5.23014 59.17071,-2.54881 83.75978,-2.50092 z"
     id="path12"
     style="stroke-width:3.6832" />
  <g
     id="g1">
    <path
       fill="#fdc901"
       d="m 425.1319,272.76203 c 2.66666,-48.60358 -18.41234,-144.84578 41.16721,-155.39449 23.27417,-4.12148 64.20197,-1.91159 89.52034,-1.92262 33.80445,-0.0112 93.10778,-9.70525 116.75763,17.42893 18.04035,20.69595 8.9686,109.25128 10.65921,139.88818 z"
       id="path8"
       style="fill:#facd19;stroke-width:3.6832" />
    <path
       fill="#fdc901"
       d="m 532.71836,747.21794 h 45.43605 c 30.75477,-0.014 61.67527,-0.74031 92.41163,0 -5.22646,12.77335 -57.69741,90.10229 -70.64391,103.33604 -13.80463,20.1692 -28.83579,39.66806 -42.90932,59.69373 -15.91147,-16.57437 -32.99417,-40.25374 -45.6239,-59.69373 -15.97039,-20.1729 -64.79126,-82.44856 -73.89616,-103.33604 10.57449,-0.69982 21.54676,-0.0957 32.16913,-0.0847 z"
       id="path9"
       style="fill:#facd19;stroke-width:3.6832" />
    <path
       fill="#e33913"
       d="m 511.38891,850.55398 h 88.53322 c -13.80463,20.1692 -28.83579,39.66806 -42.90932,59.69373 -15.91147,-16.57437 -32.99417,-40.25374 -45.6239,-59.69373 z"
       id="path10"
       style="fill:#dc4323;stroke-width:3.6832" />
    <path
       fill="#9e9d9c"
       d="m 757.28715,465.97567 v 0 177.9136 c -24.52279,-1.0092 -49.49494,-0.10684 -74.05086,0 l 0.0919,-121.57896 c 0.005,-18.49704 -1.67955,-37.95545 -0.0919,-56.33464 z"
       id="path11"
       style="stroke-width:3.6832" />
    <path
       fill="#9e9d9c"
       d="m 345.38313,465.97567 c 26.38649,-0.28363 53.41383,-1.15285 79.74877,0 v 177.9136 h -70.93119 c -0.93183,-16.47867 -0.12151,-32.8321 -0.0479,-49.31444 l 0.1363,-82.8869 c 0.0257,-17.91142 7.41798,-44.50416 -8.906,-45.71226 z"
       id="path13"
       style="stroke-width:3.6832" />
  </g>
</svg>
